<?xml version="1.0" encoding="UTF-8" standalone="no" ?>
<!DOCTYPE svg PUBLIC "-//W3C//DTD SVG 1.1//EN" "http://www.w3.org/Graphics/SVG/1.1/DTD/svg11.dtd">
<svg xmlns="http://www.w3.org/2000/svg" xmlns:xlink="http://www.w3.org/1999/xlink" version="1.1" width="1080" height="1080" viewBox="0 0 1080 1080" xml:space="preserve">
<desc>Created with Fabric.js 5.2.4</desc>
<defs>
</defs>
<g transform="matrix(1 0 0 1 540 540)" id="933f341b-1432-41dd-8938-914c397b26d6"  >
<rect style="stroke: none; stroke-width: 1; stroke-dasharray: none; stroke-linecap: butt; stroke-dashoffset: 0; stroke-linejoin: miter; stroke-miterlimit: 4; fill: rgb(255,255,255); fill-rule: nonzero; opacity: 1; visibility: hidden;" vector-effect="non-scaling-stroke"  x="-540" y="-540" rx="0" ry="0" width="1080" height="1080" />
</g>
<g transform="matrix(1 0 0 1 540 540)" id="0f2ac1f9-8aa8-418c-ad9e-b4d74e5620e3"  >
</g>
<g transform="matrix(5.29 0 0 5.29 540 540)"  >
<g style=""   >
		<g transform="matrix(1 0 0 1 0 -46.65)" id="Triangle-24"  >
<polygon style="stroke: none; stroke-width: 1; stroke-dasharray: none; stroke-linecap: butt; stroke-dashoffset: 0; stroke-linejoin: miter; stroke-miterlimit: 4; fill: rgb(221,221,221); fill-rule: evenodd; opacity: 1;" vector-effect="non-scaling-stroke"  points="0,-27.99 39.66,27.99 -39.66,27.99 " />
</g>
		<g transform="matrix(1 0 0 -1 0 46.65)" id="Triangle-24-Copy"  >
<polygon style="stroke: none; stroke-width: 1; stroke-dasharray: none; stroke-linecap: butt; stroke-dashoffset: 0; stroke-linejoin: miter; stroke-miterlimit: 4; fill: rgb(221,221,221); fill-rule: evenodd; opacity: 1;" vector-effect="non-scaling-stroke"  points="0,-27.99 39.66,27.99 -39.66,27.99 " />
</g>
</g>
</g>
<g transform="matrix(5.29 0 0 5.29 540 540)"  >
<g style=""   >
		<g transform="matrix(1 0 0 1 0 -46.65)" id="Triangle-24"  >
<polygon style="stroke: none; stroke-width: 1; stroke-dasharray: none; stroke-linecap: butt; stroke-dashoffset: 0; stroke-linejoin: miter; stroke-miterlimit: 4; fill: rgb(221,221,221); fill-rule: evenodd; opacity: 1;" vector-effect="non-scaling-stroke"  points="0,-27.99 39.66,27.99 -39.66,27.99 " />
</g>
		<g transform="matrix(1 0 0 -1 0 46.65)" id="Triangle-24-Copy"  >
<polygon style="stroke: none; stroke-width: 1; stroke-dasharray: none; stroke-linecap: butt; stroke-dashoffset: 0; stroke-linejoin: miter; stroke-miterlimit: 4; fill: rgb(221,221,221); fill-rule: evenodd; opacity: 1;" vector-effect="non-scaling-stroke"  points="0,-27.99 39.66,27.99 -39.66,27.99 " />
</g>
</g>
</g>
</svg>