<?xml version="1.0" standalone="no"?>
<!DOCTYPE svg PUBLIC "-//W3C//DTD SVG 20010904//EN"
 "http://www.w3.org/TR/2001/REC-SVG-20010904/DTD/svg10.dtd">
<svg version="1.0" xmlns="http://www.w3.org/2000/svg"
 width="1290.000000pt" height="1290.000000pt" viewBox="0 0 1290.000000 1290.000000"
 preserveAspectRatio="xMidYMid meet">
<metadata>
Created by potrace 1.14, written by Peter Selinger 2001-2017
</metadata>
<g transform="translate(0.000000,1290.000000) scale(0.100000,-0.100000)"
fill="#000000" stroke="none">
<path d="M530 9740 l0 -2058 1093 0 c600 0 1117 -3 1147 -7 96 -11 113 -15
215 -47 404 -126 704 -444 804 -853 25 -102 31 -163 31 -283 0 -95 -2 -110
-14 -182 -14 -81 -18 -99 -43 -175 -72 -224 -226 -437 -420 -584 -106 -80
-294 -170 -408 -197 -44 -10 -117 -24 -162 -30 -26 -4 -542 -7 -1145 -7
l-1098 0 0 -2057 0 -2057 2490 0 2490 0 0 463 0 464 -2027 2 -2028 3 0 1124
c0 742 3 1125 10 1127 5 2 325 5 710 7 385 2 716 7 735 11 19 3 85 16 145 27
534 101 1041 444 1347 911 179 272 284 558 333 908 9 62 12 164 10 290 -6 328
-61 568 -202 870 -133 286 -361 566 -628 771 -188 144 -470 287 -676 343 -30
8 -69 19 -87 25 -18 5 -35 10 -37 10 -3 0 -29 4 -58 10 -169 35 -260 39 -926
40 -381 1 -667 5 -671 10 -3 5 -5 512 -5 1128 l0 1118 2028 3 2027 2 0 464 0
463 -2490 0 -2490 0 0 -2057z"/>
<path d="M7290 11334 l0 -464 2025 0 c1114 0 2026 -3 2026 -7 1 -5 2 -511 3
-1127 1 -739 -2 -1120 -9 -1122 -5 -2 -325 -5 -710 -7 -385 -2 -716 -7 -735
-11 -19 -3 -84 -16 -145 -27 -211 -40 -458 -135 -657 -252 -216 -127 -458
-342 -600 -532 -37 -50 -72 -95 -78 -102 -5 -7 -10 -14 -10 -17 0 -3 -13 -24
-29 -48 -124 -184 -254 -524 -290 -758 -6 -36 -14 -87 -18 -115 -16 -106 -8
-475 12 -575 3 -14 8 -41 11 -60 7 -36 9 -48 24 -110 124 -532 483 -1017 972
-1315 171 -104 477 -223 648 -251 14 -2 34 -6 46 -9 126 -28 247 -33 894 -34
369 -1 667 -6 670 -10 3 -5 5 -512 5 -1128 l0 -1118 -2028 -3 -2027 -2 0 -464
0 -463 2490 0 2490 0 0 2057 0 2057 -1083 0 c-595 0 -1114 3 -1152 7 -339 36
-653 224 -851 511 -88 127 -172 334 -189 465 -4 30 -9 64 -11 75 -7 32 -6 195
1 260 15 131 60 276 127 405 146 283 392 490 698 588 96 30 116 35 225 48 32
4 549 7 1147 7 l1088 0 0 2057 0 2057 -2490 0 -2490 0 0 -463z"/>
</g>
</svg>
